<?xml version="1.0" encoding="UTF-8" standalone="no"?>
<svg version="1.1" id="d20" width="110" height="110" xmlns="http://www.w3.org/2000/svg"
    xmlns:svg="http://www.w3.org/2000/svg">
    <defs id="defs_d20">
        <linearGradient y2="0%" y1="0%" x2="100%" x1="0%" id="horizontal-gradient">
            <stop stop-color="#f11653" offset="0%" id="horizontal-gradient_0" />
            <stop stop-color="#fa2c05" offset="20%" id="horizontal-gradient_2" />
            <stop stop-color="#f637e3" offset="40%" id="horizontal-gradient_4" />
            <stop stop-color="#8514f5" offset="60%" id="horizontal-gradient_6" />
            <stop stop-color="#8001c6" offset="80%" id="horizontal-gradient_8" />
            <stop stop-color="#0546ff" offset="100%" id="horizontal-gradient_1" />
        </linearGradient>
        <linearGradient y2="100%" y1="0%" x2="0%" x1="0%" id="vertical-gradient">
            <stop stop-color="#f11653" offset="0%" id="horizontal-gradient_0" />
            <stop stop-color="#fa2c05" offset="20%" id="horizontal-gradient_2" />
            <stop stop-color="#f637e3" offset="40%" id="horizontal-gradient_4" />
            <stop stop-color="#8514f5" offset="60%" id="horizontal-gradient_6" />
            <stop stop-color="#8001c6" offset="80%" id="horizontal-gradient_8" />
            <stop stop-color="#0546ff" offset="100%" id="horizontal-gradient_1" />
        </linearGradient>
    </defs>
    <g id="g_d20" stroke="black" stroke-width="1px" stroke-linejoin="round" fill="black">
        <path id="p_d20"
            d="M 55 3 L 10 26 V 80 L 55 105 L 100 80 V 26 Z M 54 5.5 V 15.2 L 17.5 24.2 Z M 56 5.5 L 92.5 24.2 L 56 15.2 Z M 56.2 17.3 L 98 27.5 L 87.6 69.6 Z M 53.8 17.3 L 22.4 69.6 L 12 27.5 Z M 55 18.7 L 86.7 71.5 H 23.3 Z M 12 36 L 20.9 71.8 L 12 78.3 Z M 98 36 V 78.3 L 89.1 71.8 Z M 22 73 L 50.2 100.3 L 12.7 79.5 Z M 24.1 73 H 85.9 L 55 103 Z M 88 73 L 97.3 79.5 L 59.8 100.3 Z" />
    </g>
</svg>