<?xml version="1.0" encoding="UTF-8" standalone="no"?>
<svg version="1.1" id="d20" width="110" height="110" xmlns="http://www.w3.org/2000/svg"
    xmlns:svg="http://www.w3.org/2000/svg">
    <defs id="defs_d20">
        <linearGradient y2="0%" y1="0%" x2="100%" x1="0%" id="horizontal-gradient">
            <stop stop-color="#f11653" offset="0%" id="horizontal-gradient_0" />
            <stop stop-color="#fa2c05" offset="20%" id="horizontal-gradient_2" />
            <stop stop-color="#f637e3" offset="40%" id="horizontal-gradient_4" />
            <stop stop-color="#8514f5" offset="60%" id="horizontal-gradient_6" />
            <stop stop-color="#8001c6" offset="80%" id="horizontal-gradient_8" />
            <stop stop-color="#0546ff" offset="100%" id="horizontal-gradient_1" />
        </linearGradient>
        <linearGradient y2="100%" y1="0%" x2="0%" x1="0%" id="vertical-gradient">
            <stop stop-color="#f11653" offset="0%" id="horizontal-gradient_0" />
            <stop stop-color="#fa2c05" offset="20%" id="horizontal-gradient_2" />
            <stop stop-color="#f637e3" offset="40%" id="horizontal-gradient_4" />
            <stop stop-color="#8514f5" offset="60%" id="horizontal-gradient_6" />
            <stop stop-color="#8001c6" offset="80%" id="horizontal-gradient_8" />
            <stop stop-color="#0546ff" offset="100%" id="horizontal-gradient_1" />
        </linearGradient>
    </defs>
    <g id="g_d20" stroke="black" stroke-width="1px" stroke-linejoin="round" fill="black">
        <path id="p_d20"
            d="M 55 3 L 100 26 L 100 80 L 55 105 L 10 80 L 10 26 Z M 97.292 79.504 L 88 73 L 59.829 100.317 Z M 98 28 L 98 27.511 L 56.172 17.286 L 87.588 69.647 Z M 55 103 L 85.938 73 L 24.062 73 Z M 55 18.666 L 23.3 71.5 L 86.7 71.5 Z M 12 27.511 L 12 28 L 22.412 69.647 L 53.828 17.286 Z M 12 78.273 L 20.942 71.769 L 12 36 Z M 50.171 100.317 L 22 73 L 12.708 79.504 Z M 98 36 L 89.058 71.769 L 98 78.273 Z M 56 5.511 L 56 15.244 L 92.499 24.167 Z M 17.501 24.166 L 54 15.244 L 54 5.511 Z" />
    </g>
</svg>