<?xml version="1.0" encoding="UTF-8" standalone="no"?>
<svg version="1.1" id="d20_multi" width="110" height="110" xmlns="http://www.w3.org/2000/svg"
    xmlns:svg="http://www.w3.org/2000/svg">
    <g id="g_d20_multi" stroke="black" stroke-width="1px" stroke-linejoin="round">
        <path id="p_d20_multi_top_left" d="M 10,28 10,26 55,3 55,5 Z" />
        <path id="p_d20_multi_top_right" d="M 55,3 55,5 100,28 100,26 Z" />
        <path id="p_d20_multi_right" d="M 98,26 100,26 100,80 98,80 Z" />
        <path id="p_d20_multi_bottom_right" d="M 100,78 100,80 55,105 55,103 Z" />
        <path id="p_d20_multi_bottom_left" d="M 55,103 55,105 10,80 10,78 Z" />
        <path id="p_d20_multi_left" d="M 10,78 12,80 12,26 10,26 Z" />
        <path id="p_d20_multi_upper_left" d="M 10,26 10,28 55,17 55,15 Z" />
        <path id="p_d20_multi_upper_middle" d="M 54,16 56,16 56,5 54,5 Z" />
        <path id="p_d20_multi_upper_right" d="M 55,15 55,17 100,28 100,26 Z" />
        <path id="p_d20_multi_middle_right" d="M 98,28 100,28 89,72 87,72 Z" />
        <path id="p_d20_multi_lower_right" d="M 88,71 88,73 98,80 99,79 Z" />
        <path id="p_d20_multi_lower_inner_right" d="M 88,71 88,73 55,105 55,103 Z" />
        <path id="p_d20_multi_lower_inner_left" d="M 55,103 55,105 22,73 22,71 Z" />
        <path id="p_d20_multi_lower_left" d="M 22,71 22,73 12,80 11,79 Z" />
        <path id="p_d20_multi_middle_left" d="M 21,72 23,72 12,28 10,28 Z" />
        <path id="p_d20_multi_middle_inner_left" d="M 21,72 23,72 56,17 54,17 Z" />
        <path id="p_d20_multi_middle_inner_right" d="M 54,17 56,17 89,72 87,72 Z" />
        <path id="p_d20_multi_lower_horizontal" d="M 22,71.5 22,73 88,73 88,71.5 Z" />
    </g>
</svg>