<?xml version="1.0" encoding="UTF-8" standalone="no"?>
<svg version="1.1" id="d20_multi" width="110" height="110" xmlns="http://www.w3.org/2000/svg"
    xmlns:svg="http://www.w3.org/2000/svg">
    <g id="g_d20_multi" stroke-width="3px" stroke="black" stroke-linejoin="round">
        <path id="p_d20_multi_top_left" d="M 10,28 55,5 Z" />
        <path id="p_d20_multi_top_right" d="M 55,5 100,28 Z" />
        <path id="p_d20_multi_right" d="M 100,28 100,80 Z" />
        <path id="p_d20_multi_bottom_right" d="M 100,80 55,105 Z" />
        <path id="p_d20_multi_bottom_left" d="M 55,105 10,80 Z" />
        <path id="p_d20_multi_left" d="M 10,80 10,28 Z" />
        <path id="p_d20_multi_upper_left" d="M 10,28 55,17 Z" />
        <path id="p_d20_multi_upper_middle" d="M 55,5 55,17 Z" />
        <path id="p_d20_multi_upper_right" d="M 55,17 100,28 Z" />
        <path id="p_d20_multi_middle_right" d="M 100,28 88,72 Z" />
        <path id="p_d20_multi_lower_right" d="M 88,72 100,80 Z" />
        <path id="p_d20_multi_lower_inner_right" d="M 88,72 55,105 Z" />
        <path id="p_d20_multi_lower_inner_left" d="M 55,105 22,72 Z" />
        <path id="p_d20_multi_lower_left" d="M 22,72 10,80 Z" />
        <path id="p_d20_multi_middle_left" d="M 22,72 10,28 Z" />
        <path id="p_d20_multi_middle_inner_left" d="M 22,72 55,17 Z" />
        <path id="p_d20_multi_middle_inner_right" d="M 55,17 88,72 Z" />
        <path id="p_d20_multi_lower_horizontal" d="M 22,72 88,72 Z" />
    </g>
</svg>