<?xml version="1.0" encoding="UTF-8" standalone="no"?>
<svg version="1.1" id="d20" width="110" height="110" xmlns="http://www.w3.org/2000/svg"
    xmlns:svg="http://www.w3.org/2000/svg">
    <defs id="defs_d20">
        <linearGradient y2="0%" y1="0%" x2="100%" x1="0%" id="horizontal-gradient">
            <stop stop-color="#fa2c05" offset="0%" id="horizontal-gradient_0" />
            <stop stop-color="#f637e3" offset="50%" id="horizontal-gradient_05" />
            <stop stop-color="#8514f5" offset="100%" id="horizontal-gradient_1" />
        </linearGradient>
        <linearGradient y2="100%" y1="0%" x2="0%" x1="0%" id="vertical-gradient">
            <stop stop-color="#fa2c05" offset="0%" id="vertical-gradient_0" />
            <stop stop-color="#f637e3" offset="50%" id="vertical-gradient_05" />
            <stop stop-color="#8514f5" offset="100%" id="vertical-gradient_1" />
        </linearGradient>
    </defs>
    <g id="g_d20">
        <path id="path_d20"
            d="m 84.162109,71.9375 -29.34375,31.14453 2.183594,2.05664 29.34375,-31.144529 z m -57.765625,0.326172 -2.201171,2.039062 29.34375,31.673826 2.201171,-2.03906 z m 58.980469,-1.226563 -1.517578,2.587891 12.818359,7.519531 1.517579,-2.585937 z m -60.30664,-0.109375 -13.453126,7.839844 1.511719,2.591797 13.453125,-7.837891 z M 96.847656,29.310547 83.818359,72.212891 86.689453,73.083984 99.71875,30.181641 Z M 12.964844,27.839844 10.085937,28.685547 23.328125,73.8125 26.207031,72.966797 Z m 42.564453,-11.308594 -0.71875,2.912109 43.855469,10.804688 0.71875,-2.912109 z m -1.464844,0 -41.630859,10.382813 0.726562,2.910156 41.63086,-10.38086 z m 2.308594,0.619141 -2.619141,1.460937 30.083985,53.919922 2.621093,-1.460937 z m -2.621094,0.0039 -30.085937,54.34375 2.625,1.453125 L 56.375,18.607422 Z m -28.24414,53.994141 v 3 h 59.111328 v -3 z M 53.404297,5.2617188 53.300781,18.855469 56.298828,18.878909 56.404297,5.2851593 Z M 56.499827,104.21757 11.65928,78.651888 10.173732,81.256689 55.014281,106.82237 Z m 42.070486,-25.56132 -44.845704,25.55664 1.486329,2.60547 44.845702,-25.556641 z m 1.289062,-51.130859 -3,0.01367 0.253906,53.669921 2.999999,-0.01367 z m 0.08903,-0.02728 L 54.746767,3.1514539 53.325158,5.7934496 98.525735,30.138465 Z m -86.993325,0.02728 -2.9999999,0.01367 0.2539059,53.669921 3,-0.01367 z M 54.736328,3.109375 9.9921875,27.548828 11.429687,30.181641 56.173828,5.7421875 Z" />
    </g>
</svg>