<?xml version="1.0" encoding="UTF-8" standalone="no"?>
<svg version="1.1" id="d20_multi" width="110" height="110" xmlns="http://www.w3.org/2000/svg"
    xmlns:svg="http://www.w3.org/2000/svg">
    <defs id="defs_d20_multi">
        <linearGradient y2="0%" y1="0%" x2="100%" x1="0%" id="horizontal-gradient">
            <stop stop-color="#fa2c05" offset="0%" id="horizontal-gradient_0" />
            <stop stop-color="#f637e3" offset="50%" id="horizontal-gradient_05" />
            <stop stop-color="#8514f5" offset="100%" id="horizontal-gradient_1" />
        </linearGradient>
        <linearGradient y2="100%" y1="0%" x2="0%" x1="0%" id="vertical-gradient">
            <stop stop-color="#fa2c05" offset="0%" id="vertical-gradient_0" />
            <stop stop-color="#f637e3" offset="50%" id="vertical-gradient_05" />
            <stop stop-color="#8514f5" offset="100%" id="vertical-gradient_1" />
        </linearGradient>
    </defs>
    <g id="g_d20_multi">
        <path id="p_d20_multi_1"
            d="M 54.736328,3.109375 9.9921875,27.548828 11.429687,30.181641 56.173828,5.7421875 Z" />
        <path id="p_d20_multi_2" d="M 98.394531,2.9414062 53.429688,27.722656 54.878906,30.349609 99.841797,5.5683594 Z"
            transform="rotate(57.1682,76.6365,16.6457)" />
        <path id="p_d20_multi_3" d="m 99.859375,27.525391 -3,0.01367 0.253906,53.669921 2.999999,-0.01367 z" />
        <path id="p_d20_multi_4" d="m 98.570313,78.65625 -44.845704,25.55664 1.486329,2.60547 44.845702,-25.556641 z" />
        <path id="p_d20_multi_5" d="m 55.017578,78.65625 -44.845703,25.55664 1.484375,2.60547 44.845703,-25.556641 z"
            transform="rotate(59.3674,33.337,92.7371)" />
        <path id="p_d20_multi_6" d="m 12.955078,27.525391 -2.9999999,0.01367 0.2539059,53.669921 3,-0.01367 z" />
        <path id="p_d20_multi_7" d="m 54.064453,16.53125 -41.630859,10.382813 0.726562,2.910156 41.63086,-10.38086 z" />
        <path id="p_d20_multi_8"
            d="m 53.404297,5.2617188 -0.103516,13.5937502 2.998047,0.02344 0.105469,-13.5937497 z" />
        <path id="p_d20_multi_9" d="m 55.529297,16.53125 -0.71875,2.912109 43.855469,10.804688 0.71875,-2.912109 z" />
        <path id="p_d20_multi_10"
            d="M 96.847656,29.310547 83.818359,72.212891 86.689453,73.083984 99.71875,30.181641 Z" />
        <path id="p_d20_multi_11"
            d="M 85.376953,71.037109 83.859375,73.625 96.677734,81.144531 98.195313,78.558594 Z" />
        <path id="p_d20_multi_12" d="m 84.162109,71.9375 -29.34375,31.14453 2.183594,2.05664 29.34375,-31.144529 z" />
        <path id="p_d20_multi_13" d="m 26.396484,72.263672 -2.201171,2.039062 29.34375,31.673826 2.201171,-2.03906 z" />
        <path id="p_d20_multi_14"
            d="m 25.070313,70.927734 -13.453126,7.839844 1.511719,2.591797 13.453125,-7.837891 z" />
        <path id="p_d20_multi_15"
            d="M 12.964844,27.839844 10.085937,28.685547 23.328125,73.8125 26.207031,72.966797 Z" />
        <path id="p_d20_multi_16" d="m 53.751953,17.154297 -30.085937,54.34375 2.625,1.453125 L 56.375,18.607422 Z" />
        <path id="p_d20_multi_17"
            d="m 56.373047,17.150391 -2.619141,1.460937 30.083985,53.919922 2.621093,-1.460937 z" />
        <path id="p_d20_multi_18" d="m 25.507813,71.148438 v 3 h 59.111328 v -3 z" />
    </g>
</svg>